<?xml version="1.0" encoding="utf-8"?>
<!-- Generator: Adobe Illustrator 24.2.1, SVG Export Plug-In . SVG Version: 6.00 Build 0)  -->
<svg version="1.1" id="Layer_1" xmlns="http://www.w3.org/2000/svg" xmlns:xlink="http://www.w3.org/1999/xlink" x="0px" y="0px"
	 viewBox="0 0 74.7 72.35" style="enable-background:new 0 0 74.7 72.35;" xml:space="preserve" fill="#81b3d2">
<g>
	<path d="M29.5,65.34h16V41.41h-16V65.34L29.5,65.34z M42.57,62.41H32.44V44.34h10.13V62.41z"/>
	<path d="M72.62,39.44l2.08-2.08l-9.91-9.91V0.47H50.97v13.16L37.35,0L0,37.36l2.08,2.08l7.83-7.83v37.8H5.97v2.94h63.88v-2.94
		h-5.06v-37.8L72.62,39.44z M53.91,3.41h7.94v21.1l-7.94-7.94V3.41z M61.85,69.41h-49V28.67l24.5-24.5l24.5,24.5V69.41z"/>
	<path d="M29.75,27.21c0,4.28,3.47,7.75,7.75,7.75c4.28,0,7.75-3.47,7.75-7.75c0-4.28-3.47-7.75-7.75-7.75
		C33.22,19.46,29.75,22.93,29.75,27.21z M37.5,22.24c2.75,0,4.97,2.22,4.97,4.97c0,2.75-2.23,4.97-4.97,4.97
		c-2.75,0-4.97-2.23-4.97-4.97C32.53,24.47,34.76,22.24,37.5,22.24z"/>
	<rect x="16.91" y="41.41" width="3" height="3.94"/>
	<rect x="22.85" y="41.41" width="3" height="3.94"/>
	<rect x="16.91" y="47.41" width="3" height="3.94"/>
	<rect x="22.85" y="47.41" width="3" height="3.94"/>
	<rect x="48.85" y="41.41" width="3" height="3.94"/>
	<rect x="54.78" y="41.41" width="3" height="3.94"/>
	<rect x="48.85" y="47.41" width="3" height="3.94"/>
	<rect x="54.78" y="47.41" width="3" height="3.94"/>
</g>
</svg>