<svg fill="#81b3d2" id="Layer_1" data-name="Layer 1" xmlns="http://www.w3.org/2000/svg" viewBox="0 0 76.17 68.96"><path d="M71.91,46H4.25A4.27,4.27,0,0,0,0,50.29v3.46A4.26,4.26,0,0,0,4.25,58h1v1A10,10,0,0,0,15.13,69H61A10,10,0,0,0,71,59V58h1a4.27,4.27,0,0,0,4.26-4.25V50.29A4.27,4.27,0,0,0,71.91,46ZM68,59A6.94,6.94,0,0,1,61,66H15.13A6.93,6.93,0,0,1,8.21,59V58H68Zm5.21-5.29A1.27,1.27,0,0,1,71.91,55H4.25A1.26,1.26,0,0,1,3,53.75V50.29A1.27,1.27,0,0,1,4.25,49H71.91a1.28,1.28,0,0,1,1.26,1.25Z"/><polygon points="16.16 37.86 21.64 41.86 27.11 37.86 32.59 41.86 38.07 37.86 43.55 41.86 49.03 37.86 54.51 41.86 59.98 37.86 65.47 41.86 71.84 37.21 70.07 34.79 65.47 38.14 59.98 34.14 54.51 38.14 49.03 34.14 43.55 38.14 38.07 34.14 32.59 38.14 27.11 34.14 21.64 38.14 16.16 34.14 10.69 38.14 6.09 34.79 4.32 37.21 10.69 41.86 16.16 37.86"/><path d="M70.89,31.09c0-.61,0-2.61,0-3C70.24,12.48,55.8,0,38.08,0S5.92,12.48,5.24,28.09c0,.39,0,2.39,0,3ZM38.08,3c16,0,29.15,11.15,29.84,25.09H8.24C8.93,14.15,22.05,3,38.08,3Z"/><circle cx="38.08" cy="15.04" r="2"/><circle cx="30.08" cy="10.08" r="2"/><circle cx="46.08" cy="10.08" r="2"/></svg>