<svg id="Layer_1" fill="#81b3d2" data-name="Layer 1" xmlns="http://www.w3.org/2000/svg" viewBox="0 0 63 75.08"><path d="M60.17,22.23H35.76C49.36,15.41,50.45,11.12,50,8.71,48.8,4.79,44.34,1.77,40.1,3.37c-5.49,2.06-7,10.26-8.52,16.19-1.89-6-3.72-13.65-8-17.53A7.21,7.21,0,0,0,17.9,0c-4,.35-9.65,5.32-7.35,10.85,2.22,5.31,9.54,8.67,14.36,11.35H2.83A2.84,2.84,0,0,0,0,25.06V36.25a2.84,2.84,0,0,0,2.84,2.83H3.1v36h57v-36h.11A2.83,2.83,0,0,0,63,36.25V25.06A2.85,2.85,0,0,0,60.17,22.23ZM41.77,5.87c2.07-.3,4.9,1.29,5.17,3.17.39,2.73-3.35,5.2-5,6.35-2.48,1.72-4.85,2.61-7.17,4C35.63,15.75,37.27,6.54,41.77,5.87ZM19.23,15.72C17,14.25,12.79,11.34,12.89,8,13,4.49,18.54,1.55,21.57,4.2c3.8,3.34,5.62,11,7,16.36A68.14,68.14,0,0,1,19.23,15.72Zm5.88,56.43H6V39.08H25.11Zm0-36.07H3V25.23H25.11Zm10,36.07H28.05V25.23h7.07Zm22,0H38.05V39.08H57.13ZM60,36.08h-22V25.23H60Z" transform="translate(0 0)"/></svg>