<svg version="1.1" id="Layer_1" xmlns="http://www.w3.org/2000/svg" xmlns:xlink="http://www.w3.org/1999/xlink" x="0px" y="0px"
	 viewBox="0 0 22 20" style="enable-background:new 0 0 22 20;" xml:space="preserve">
<style type="text/css">
	.st0{fill:#FFFFFF;}
</style>
<g id="Page-1">
	<g id="Core" transform="translate(-295.000000, -464.000000)">
		<g id="thumb-up" transform="translate(295.000000, 464.000000)">
			<g id="Shape">
				<path class="st0" d="M12.38,3.65l-0.64,2.93L11.22,9h2.48h6.2v2c0,0.02,0,0.04,0,0.06L17,18H8V8.03l0.01-0.01L12.38,3.65 M2,10
					v8V10 M13.2,0L6.6,6.6C6.2,6.9,6,7.4,6,8v10c0,1.1,0.9,2,2,2h9c0.8,0,1.5-0.5,1.8-1.2l3-7.1c0.1-0.2,0.1-0.5,0.1-0.7V9H22
					c0-1.1-0.9-2-2-2h-6.3l1-4.6V2.1c0-0.4-0.2-0.8-0.4-1.1L13.2,0L13.2,0z M4,8H0v12h4V8L4,8z M22,9c0,0.03,0,0.04,0,0.04V9L22,9z"
					/>
			</g>
		</g>
	</g>
</g>
</svg>