<?xml version="1.0" encoding="utf-8"?>
<!-- Generator: Adobe Illustrator 24.2.1, SVG Export Plug-In . SVG Version: 6.00 Build 0)  -->
<svg version="1.1" id="Layer_1" xmlns="http://www.w3.org/2000/svg" xmlns:xlink="http://www.w3.org/1999/xlink" x="0px" y="0px"
	 viewBox="42.18 0 101.67 83.98" style="enable-background:new 42.18 0 101.67 83.98;" xml:space="preserve">
<style type="text/css">
	.st0{fill:#23A9E1;}
	.st1{fill:#491213;}
	.st2{fill:#FFFFFF;}
	.st3{fill:#DC6243;}
	.st4{fill:#F49774;}
	.st5{fill:#F4B1A4;}
</style>
<g id="Layer_2">
	<g>
		<g id="Layer_2_1_">
			<g>
				<g>
					<polygon class="st0" points="42.18,0 92.77,59.05 143.85,0 					"/>
				</g>
				<path class="st1" d="M93.1,0H42.18v22.46l50.58,61.52l0.34-0.42l50.75-60.39V0H93.1z M93.1,57.05l-0.34,0.41L45.89,1.78H93.1
					h47.21L93.1,57.05z"/>
				<path class="st1" d="M92.77,57.46l0.34-0.41l27.58-32.29c-6.91,0.95-11.86,6.08-18.6,4.95c-3.4-0.56-3.5-2.51-4.47-4.45
					c-0.75-1.49-1.94-1.3-3.49-1.91c-1.44-0.56-2.28-1.74-5.16-1.06c-2.53,0.59-2.81,4.52-5.95,4.29c-1.69-0.12-1.81-2.5-4.24-5.54
					c-6.3-7.57-12.16-6.52-16.25,0.47L92.77,57.46z"/>
				<g>
					<g>
						<path class="st2" d="M65.46,32.25c0.51,0.62,0.89,1.28,0.81,2.12c-0.06,0.58-0.94,1.55-0.27,1.85
							c0.75-0.94,1.5-1.89,2.24-2.83c-0.6-0.15-5.37-5.85-5.44-6.47c-1.05,0.58-2.11,1.16-3.16,1.73c0.16,0.66,1.29,0,1.85,0.05
							c0.83,0.06,1.42,0.56,1.95,1.15c-1.73,1.45-5.93,5.02-6.38,5.09c-0.23,0.04-1.09-0.6-1.1-0.05c-0.01,0.26,0.85,1.01,1.01,1.21
							c0.74,0.88,1.49,1.77,2.23,2.65c0.62-0.28-0.11-0.73,0.2-1.24C59.65,37.12,64.32,33.22,65.46,32.25L65.46,32.25z"/>
					</g>
					<g>
						<path class="st2" d="M60.19,25.27c0.44-0.09,0.62,0.43,0.96-0.06c-0.81-0.97-1.63-1.95-2.45-2.92
							c-0.37-0.44-0.84-0.92-0.71,0.02c0.09,0.63-6.11,5.66-6.49,5.82c-0.48,0.2-0.76-0.42-1.11,0.1c0.73,0.87,1.46,1.74,2.19,2.61
							c0.25,0.29,0.48,0.61,0.75,0.88c0.34,0.34,0.21-0.67,0.22-0.59c-0.09-0.51,0.53-0.95,0.85-1.23
							C55.96,28.55,59.81,25.32,60.19,25.27z"/>
					</g>
					<g>
						<path class="st2" d="M51.42,24.35c-1.77,0.52-3.65-0.16-4.21-2.04c-0.54-1.83,0.61-3.76,2.07-4.8
							c1.44-1.03,3.59-0.97,4.37,0.84c0.35,0.8,0.16,1.71-0.09,2.5c-0.16,0.51-0.6,1,0.06,1.29c0.86-1.1,1.72-2.19,2.58-3.29
							c-1.06-0.63-1.52-1.68-2.3-2.6c-0.88-1.07-2.06-2.08-3.48-2.28c-2.87-0.41-5.57,2.56-5.79,5.24c-0.14,1.46,0.37,2.85,1.25,4
							c0.75,0.99,1.87,1.62,2.44,2.75c0.26,0.09,2.7-1.03,3.29-1.26C51.54,24.61,51.5,24.44,51.42,24.35
							C50.66,24.58,51.42,24.35,51.42,24.35z"/>
					</g>
					<g>
						<path class="st2" d="M90.72,60.76c-1.15-0.77-4.03-4.69-4.57-5.34c-0.11-0.13-0.22-0.26-0.33-0.39
							c-0.01-0.02-0.28,0.22-0.25,0.19c-0.17,0.15,0.13,0.57-0.05,0.87c-0.79,1.24-5.76,4.98-6.02,5.16
							c-0.55,0.38-1.16-0.16-1.49,0.31c0.72,0.86,2.78,3.54,3.02,3.58c0.48,0.08,0.15-0.81,0.21-1c0.12-0.37,2.63-2.45,3.55-3.21
							c0.34-0.28,0.69,0.43,0.89,0.72c0.33,0.48,0.47,1,0.3,1.57c-0.12,0.37-0.72,0.92-0.25,1.17c0.62-0.72,2.36-2.75,2.61-3.05
							c0.25-0.29-0.57-0.04-0.47-0.09c-0.37,0.19-0.72,0.23-1.06-0.03c-0.1-0.07-1.09-1.08-0.99-1.17c0.43-0.36,0.96-0.96,1.52-1.1
							c0.86-0.21,1.58,1.52,1.71,2.13c0.12,0.58,0.1,1.19-0.08,1.75c-0.12,0.39-0.49,0.7,0.02,0.93c0.71-0.97,1.42-1.94,2.13-2.92
							C90.97,60.86,90.84,60.83,90.72,60.76C90.59,60.68,90.86,60.83,90.72,60.76z"/>
					</g>
					<g>
						<path class="st2" d="M80.5,56.63c2.21-1.86,2.48-5.05,0.77-7.34c-1.87-2.49-5.37-3.1-7.81-1.05c-2.2,1.85-2.49,5.05-0.76,7.32
							C74.69,58.18,77.9,58.48,80.5,56.63C81.65,55.65,80.4,56.7,80.5,56.63z M80.03,51.88c-0.65,1.51-2.2,3.06-3.73,3.67
							c-1.82,0.71-3.1-0.83-2.36-2.55c0.65-1.52,2.2-3.06,3.74-3.67C79.53,48.59,80.74,50.17,80.03,51.88
							C79.65,52.77,80.1,51.71,80.03,51.88z"/>
					</g>
					<g>
						<path class="st2" d="M74.05,42.02c0.48,0.06,0.93,0.55,1.27,0.04c-0.74-0.88-1.48-1.76-2.23-2.64
							c-0.6,0.27,0.05,0.55-0.19,0.97c-0.24,0.43-2.56,0.78-3.18,0.89c0.22-0.64,0.9-2.62,1.16-2.83c0.54-0.44,0.88,0.43,1.28-0.14
							c-0.92-1.08-1.83-2.17-2.74-3.25c-0.31-0.37-0.56-1.03-0.98-0.68c0.04-0.03,0.01,1.47-0.09,1.73
							c-0.09,0.24-0.94,3.64-1.93,4.47c-0.49,0.41-2.24,1.93-2.7,2.1c-0.54,0.19-0.82-0.6-1.22-0.04c0.83,0.99,1.66,1.97,2.49,2.96
							c0.13,0.15,0.6,0.86,0.77,0.89c0.52,0.1,0.06-0.89,0.11-1.09c0.15-0.43,2.5-2.72,3.5-2.86
							C70.83,42.34,72.57,41.84,74.05,42.02C74.39,42.06,73.7,41.98,74.05,42.02z"/>
					</g>
				</g>
				<g>
					<g>
						<path class="st2" d="M111.39,52.45c0.19,0.65,0.3,1.33,0.21,2.01c-0.11,0.87-0.98,2.92-2.17,2.34
							c-1.17-0.57-2.19-1.73-3.19-2.55c0.8-0.94,1.51-1.75,2.85-1.29c0.37,0.12,0.69-0.04,0.3-0.26c-0.4-0.23-3.11-1.96-3.26-1.8
							c-0.27,0.31,0.53,0.87,0.22,1.47c-0.23,0.45-0.61,0.83-0.93,1.22c-0.72-0.61-1.92-1.25-1.06-2.26
							c0.54-0.66,1.25-1.17,2.1-1.34c0.56-0.11,1.84,0.39,2.01-0.22c-1.09-0.52-2.17-1.04-3.26-1.56c0.18,0.8-3.35,4.52-4.13,5.46
							c-0.11,0.14-0.66,0.61-0.66,0.8c-0.01,0.43,0.62,0.1,0.66,0.08c0.49-0.18,6.82,5.11,6.97,5.47c0.1,0.28-0.22,0.57-0.03,0.73
							c-0.01-0.01,0.23,0.22,0.25,0.19c0.39-0.47,4.52-5.98,5.37-6.22c-0.79-1.21-1.59-2.43-2.37-3.65
							C110.69,51.32,111.26,52.01,111.39,52.45z"/>
					</g>
					<g>
						<path class="st2" d="M105.23,59.15c-2.08-1.34-5.6,1.28-6.13,1.53c-1.04,0.49-1.79-0.54-1.25-1.5
							c0.47-0.83,1.39-1.23,2.31-1.29c0.28-0.02,1.35,0.2,1.46,0.03c0.13-0.2,0.23-0.22,0.04-0.35c-0.85-0.58-1.71-1.15-2.57-1.73
							c-0.18,1.06-1.39,1.73-2.08,2.44c-0.82,0.86-1.52,1.93-1.52,3.16c0,1.13,0.68,2.14,1.68,2.66c1.14,0.59,2.32,0.12,3.32-0.51
							c0.63-0.39,1.25-0.86,1.92-1.17c1-0.47,2.31-0.06,1.95,1.27c-0.28,1.07-1.35,2.06-2.4,2.34c-0.62,0.16-1.27,0.11-1.87-0.09
							c-0.43-0.14-0.99-0.73-1.23-0.11c1.16,0.85,2.32,1.69,3.48,2.54c0.1-0.76,0.52-1.09,1.09-1.56c0.74-0.65,1.44-1.32,1.99-2.13
							C106.59,62.97,106.97,60.6,105.23,59.15z"/>
					</g>
					<g>
						<path class="st2" d="M105.23,59.15C106.15,59.75,104.64,58.66,105.23,59.15L105.23,59.15z"/>
					</g>
					<g>
						<path class="st2" d="M134.46,21.84C134.46,21.84,134.46,21.84,134.46,21.84L134.46,21.84z"/>
					</g>
					<g>
						<path class="st2" d="M141.92,19.63c-0.73,0.73-8.42-2.34-8.98-2.76c-0.29-0.12-0.3-1.32-0.71-0.83
							c-0.4,0.49-0.81,0.98-1.21,1.46c-0.42,0.51-0.84,1.01-1.26,1.51c-0.26,0.31-0.54,0.46-0.04,0.72
							c0.84-0.42,5.42,7.35,5.01,8.46c-0.73,0.38-6.91-5.06-7.08-5.42c-0.05-0.15,0.27-1.02-0.21-0.95
							c-0.23,0.04-0.74,0.9-0.89,1.07c-0.3,0.36-0.59,0.71-0.89,1.07c0.33,0.48,0.52-0.02,0.96,0.04c0.38,0.08,1.84,1.33,2.24,1.66
							c-0.73,0.03-2.69,0.13-2.93,0.11c-0.9,0.11-0.42-0.66-1.02-0.93c-0.76,0.92-1.52,1.84-2.28,2.76
							c-0.44,0.54-0.88,1.07-1.33,1.61c-0.05,0.07-0.05,0.03,0.05,0.11c0.33,0.27,0.1,0.17,0.57,0.01c0.51-0.18,6.56,4.93,6.78,5.19
							c0.38,0.45-0.15,0.98,0.41,1.22c0.6-0.73,1.2-1.46,1.8-2.18c0.09-0.11,0.14-0.1,0.02-0.2c-0.43-0.35-0.48,0.21-1,0.15
							c-0.53-0.09-4.4-3.37-5.9-4.61c1.82-0.07,7.29-0.27,8.2-0.3c0.3-0.01,1.14,0.9,1.07,1.22c-0.08,0.38-0.46,0.56,0.06,0.79
							c0.48-0.58,0.98-1.15,1.46-1.73l0,0l0.23-0.28c0.08-0.05,0.15-0.15,0.21-0.26l0.17-0.21c0.43-0.49,1.8-2.01,1.63-2.15
							c-0.46-0.4-0.68,0.47-1.3-0.05c-0.35-0.25-1.22-1.79-1.44-2.16c-0.26-0.45,0.61-0.9,0.96-1.12c0.78-0.48,3.25-1.18,3.48,0.35
							c0.04,0.26-0.27,0.55-0.08,0.7c0.04,0.04,0.21,0.24,0.27,0.16c0.16-0.2,2.36-2.84,3.3-3.97
							C142.15,19.82,142.04,19.67,141.92,19.63z M134.55,21.78C134.62,21.74,134.7,21.69,134.55,21.78
							c-0.05,0.03-0.07,0.05-0.08,0.05C134.48,21.83,134.51,21.81,134.55,21.78c-0.35,0.22-0.67,0.48-0.96,0.76
							c-0.52-0.9-1.04-1.79-1.56-2.69c1.18,0.49,2.35,0.99,3.52,1.48C135.19,21.43,134.86,21.59,134.55,21.78z"/>
					</g>
					<g>
						<path class="st2" d="M124.8,33c-2.38-1.98-5.63-1.4-7.59,0.83c-1.9,2.31-1.71,5.66,0.61,7.62c2.34,1.93,5.67,1.44,7.57-0.85
							C127.29,38.29,127.16,34.93,124.8,33z M124.52,39.61c-0.02,0.02-0.02,0.03-0.03,0.03c-1.23,1.29-3.36,0.1-4.51-0.73
							c-1.15-0.83-3.11-2.57-1.86-4.1c1.06-1.29,3.13-0.23,4.19,0.48c1.2,0.8,3.41,2.6,2.28,4.22
							C124.67,39.41,124.73,39.35,124.52,39.61z"/>
					</g>
					<g>
						<path class="st2" d="M124.8,33C125.97,33.96,124.55,32.78,124.8,33L124.8,33z"/>
					</g>
					<g>
						<path class="st2" d="M124.49,39.64c0.01-0.01,0.02-0.02,0.03-0.03c0.03-0.04,0.06-0.07,0.08-0.11
							C124.55,39.56,124.49,39.64,124.49,39.64z"/>
					</g>
					<g>
						<path class="st2" d="M118.21,42.12c0.11,0.09,0.27,0.22-0.06-0.06c-2.84-2.13-6.19-1.5-8.4,1.16
							c-0.99,1.19-1.98,2.38-2.96,3.57c0.35,0.51,0.76-0.12,1.27,0.18c0.44,0.25,6.24,5.1,6.34,5.36c0.16,0.46-0.25,0.55,0.14,0.88
							c0.17,0.14,4.54-5.24,4.94-6.19C120.16,45.26,119.61,43.33,118.21,42.12z M116.89,48.87c-0.24,0.3-0.04,0.05-0.66,0.65
							c-0.31,0.29-6.44-4.68-6.19-4.94c0.83-0.92,2.57-1.56,3.58-1.3C115.8,43.84,118.82,46.54,116.89,48.87z"/>
					</g>
				</g>
			</g>
		</g>
		<path class="st1" d="M92.76,57.48l0.34-0.41l27.58-32.29c-6.91,0.95-11.86,6.08-18.6,4.96c-3.4-0.56-3.5-2.51-4.47-4.46
			c-0.75-1.49-1.94-1.3-3.49-1.91c-1.44-0.56-2.28-1.74-5.16-1.06c-2.53,0.59-2.81,4.52-5.95,4.29c-1.69-0.12-1.81-2.5-4.24-5.54
			c-6.3-7.57-12.16-6.52-16.25,0.48L92.76,57.48z"/>
		<g>
			<polygon class="st0" points="88.75,70.92 92.76,64.42 96.77,70.92 92.76,77.43 			"/>
		</g>
		<g>
			<g>
				<path class="st2" d="M65.46,32.27c0.51,0.62,0.89,1.28,0.81,2.12c-0.06,0.58-0.94,1.55-0.27,1.85c0.75-0.94,1.5-1.89,2.24-2.83
					c-0.6-0.15-5.37-5.85-5.44-6.47c-1.05,0.58-2.11,1.16-3.16,1.73c0.16,0.66,1.29,0.01,1.85,0.05c0.83,0.06,1.42,0.56,1.95,1.15
					c-1.73,1.45-5.93,5.02-6.37,5.09c-0.23,0.04-1.09-0.6-1.1-0.06c-0.01,0.26,0.85,1.01,1.01,1.21c0.74,0.88,1.49,1.77,2.23,2.65
					c0.62-0.28-0.11-0.73,0.21-1.24C59.65,37.13,64.32,33.24,65.46,32.27L65.46,32.27z"/>
			</g>
			<g>
				<path class="st2" d="M60.19,25.29c0.44-0.1,0.62,0.43,0.96-0.06c-0.82-0.97-1.63-1.94-2.45-2.92c-0.37-0.44-0.84-0.92-0.71,0.02
					c0.09,0.63-6.11,5.66-6.49,5.82c-0.48,0.2-0.76-0.42-1.11,0.1c0.73,0.87,1.46,1.74,2.19,2.61c0.25,0.29,0.48,0.61,0.75,0.88
					c0.34,0.34,0.21-0.67,0.22-0.58c-0.09-0.51,0.53-0.95,0.86-1.23C55.96,28.56,59.81,25.34,60.19,25.29z"/>
			</g>
			<g>
				<path class="st2" d="M51.42,24.37c-1.77,0.52-3.65-0.16-4.21-2.04c-0.54-1.84,0.61-3.76,2.07-4.8c1.44-1.03,3.59-0.97,4.37,0.84
					c0.35,0.8,0.16,1.71-0.09,2.5c-0.16,0.51-0.6,1,0.06,1.29c0.86-1.1,1.72-2.19,2.58-3.29c-1.06-0.63-1.52-1.68-2.3-2.6
					c-0.88-1.07-2.06-2.08-3.48-2.28c-2.87-0.41-5.57,2.56-5.79,5.24c-0.14,1.46,0.37,2.85,1.25,4c0.75,0.99,1.87,1.62,2.43,2.75
					c0.26,0.09,2.71-1.03,3.29-1.26C51.54,24.62,51.5,24.46,51.42,24.37C50.66,24.59,51.42,24.37,51.42,24.37z"/>
			</g>
			<g>
				<path class="st2" d="M90.72,60.78c-1.15-0.77-4.03-4.69-4.57-5.34c-0.11-0.13-0.22-0.26-0.33-0.39
					c-0.01-0.01-0.28,0.22-0.25,0.19c-0.17,0.15,0.13,0.57-0.05,0.86c-0.79,1.24-5.76,4.98-6.02,5.16
					c-0.56,0.38-1.16-0.16-1.49,0.32c0.72,0.85,2.78,3.54,3.02,3.58c0.48,0.08,0.15-0.81,0.21-1c0.12-0.37,2.63-2.45,3.55-3.21
					c0.34-0.28,0.69,0.43,0.89,0.72c0.33,0.48,0.47,1,0.3,1.57c-0.12,0.37-0.72,0.92-0.25,1.17c0.62-0.72,2.36-2.75,2.61-3.05
					c0.25-0.29-0.57-0.04-0.47-0.09c-0.37,0.19-0.72,0.24-1.06-0.03c-0.1-0.07-1.09-1.08-0.99-1.17c0.43-0.36,0.96-0.96,1.52-1.1
					c0.86-0.21,1.58,1.52,1.71,2.13c0.12,0.58,0.1,1.19-0.08,1.75c-0.12,0.39-0.49,0.7,0.02,0.93c0.71-0.97,1.42-1.95,2.13-2.92
					C90.97,60.88,90.84,60.85,90.72,60.78C90.59,60.69,90.86,60.85,90.72,60.78z"/>
			</g>
			<g>
				<path class="st2" d="M80.5,56.65c2.21-1.86,2.48-5.05,0.77-7.34c-1.87-2.49-5.37-3.1-7.8-1.05c-2.2,1.85-2.49,5.05-0.76,7.32
					C74.69,58.2,77.9,58.5,80.5,56.65C81.65,55.67,80.4,56.72,80.5,56.65z M80.03,51.89c-0.65,1.51-2.2,3.06-3.73,3.67
					c-1.82,0.71-3.1-0.83-2.36-2.55c0.65-1.52,2.2-3.06,3.74-3.67C79.53,48.61,80.74,50.19,80.03,51.89
					C79.65,52.78,80.1,51.72,80.03,51.89z"/>
			</g>
			<g>
				<path class="st2" d="M74.05,42.04c0.47,0.06,0.93,0.55,1.27,0.04c-0.74-0.88-1.48-1.76-2.23-2.64
					c-0.59,0.27,0.05,0.55-0.19,0.97c-0.24,0.43-2.56,0.78-3.18,0.89c0.22-0.64,0.9-2.62,1.16-2.84c0.54-0.44,0.88,0.43,1.28-0.14
					c-0.91-1.08-1.83-2.17-2.74-3.25c-0.31-0.37-0.56-1.03-0.98-0.68c0.04-0.03,0.01,1.47-0.09,1.73c-0.09,0.24-0.94,3.64-1.93,4.47
					c-0.49,0.41-2.24,1.93-2.7,2.1c-0.54,0.19-0.83-0.6-1.22-0.04c0.83,0.99,1.66,1.97,2.49,2.96c0.13,0.15,0.6,0.86,0.77,0.89
					c0.52,0.09,0.06-0.89,0.11-1.09c0.15-0.43,2.5-2.72,3.5-2.86C70.83,42.36,72.57,41.86,74.05,42.04
					C74.39,42.08,73.7,41.99,74.05,42.04z"/>
			</g>
		</g>
		<g>
			<path class="st3" d="M67.79,22.87c-4.04-0.17-2.35-3.95,0.39-4.81c2.61-0.81,8.09,1.72,9.84,3.4c-2.78,0.85-6.39,0.73-9.45,0.87
				C68.36,19.22,67.63,20.31,67.79,22.87L67.79,22.87z"/>
		</g>
		<g>
			<path class="st3" d="M68.81,27.72c-2.04-1.58-1.4-5.27,1.76-4.15C74.58,25.66,69.71,26.82,68.81,27.72
				C68.81,27.72,68.85,27.68,68.81,27.72z"/>
		</g>
		<g>
			<path class="st3" d="M77.3,35.42c-8.62-0.07-2.79-13.32,0.14-12.52C80.81,23.98,80.43,35.52,77.3,35.42L77.3,35.42z"/>
		</g>
		<g>
			<path class="st3" d="M83.4,31.09c-0.84,2.5-2.36,2.97-2.19-0.07c0.19-3.5,2.48-2.66,4.93-4c2.04-1.12,3.14-5.21,6.64-2.77
				c1.56,1.09,3.35,0.18,3.85,1.83C96.61,26,92.09,36.4,94.6,36.4c-4.96,0-2.77-5.92-0.87-9.9c-1.85,0.88-4.84,6.69-2.38,7.64
				c-1.28,1.69-5.19,3.94-7.23,2.3C82.56,35.19,83.42,33.11,83.4,31.09L83.4,31.09z"/>
		</g>
		<g>
			<path class="st3" d="M87.51,40.7c-3.49,1.05-8.12-1.21-2.51-2.34C88.48,37.65,92.18,39.13,87.51,40.7
				C87.65,40.65,87.38,40.74,87.51,40.7z"/>
		</g>
		<g>
			<path class="st3" d="M91.88,40.56c-0.74-1.66,0.56-3.64,2.68-2.2C96.4,39.61,93.7,41.46,91.88,40.56L91.88,40.56z"/>
		</g>
		<g>
			<path class="st3" d="M88.93,45.22c-2.41-0.75-10.54-0.56-5.22-2.76C85.35,41.78,93.87,42.56,88.93,45.22L88.93,45.22z"/>
		</g>
		<g>
			<path class="st3" d="M92.14,44.87c-0.01-0.96-0.51-2.68,1.35-1.95C95.73,43.8,92.14,45.58,92.14,44.87
				C92.14,44.87,92.14,44.7,92.14,44.87z"/>
		</g>
		<g>
			<path class="st3" d="M99.36,48.54c-1.44-1.23-2.89-1.29-4.23,0c-1.79-3.29-8.32-2.19-11.37-2.65
				C85.41,49.92,98.63,50.67,99.36,48.54L99.36,48.54z"/>
		</g>
		<g>
			<path class="st3" d="M97.46,50.96c-3.15-0.15-6.67-0.56-9.65,0.08c1.86,0.47,6.4,1.79,2.17,2.92c1.52,2.17,3.97,2.03,5.58,0.13
				c-0.65-0.32-1.01-0.72-1.55-1.06C95.69,52.73,97.25,51.77,97.46,50.96L97.46,50.96z"/>
		</g>
		<g>
			<path class="st3" d="M101.06,47.09c-5.29-3.11-3.95-5.43,0.35-7.59c2.25-1.13,7.32-5.21,9.45-3.85
				C107.59,39.46,104.32,43.27,101.06,47.09L101.06,47.09z"/>
		</g>
		<g>
			<path class="st4" d="M97.29,39.81c-4.48-4.6,6.69-4.18,8.49-5.8c1.31,0.44,10.77-8.28,13.07-7.74c-1.66,1.94-5.22,8.14-7.77,8.14
				c-1.96,0-3.95-0.29-5.47,1.11C103.38,37.56,99.69,38.61,97.29,39.81L97.29,39.81z"/>
		</g>
		<g>
			<path class="st5" d="M98.76,34.18c-2.45,1.32-4.77-3.91-0.54-3.4c2.81,0.34,5.66-0.24,8.35,0.23
				C104.64,33.3,101.86,34.56,98.76,34.18L98.76,34.18z"/>
		</g>
		<g>
			<g>
				<path class="st2" d="M111.39,52.47c0.19,0.65,0.3,1.33,0.21,2.01c-0.11,0.87-0.98,2.92-2.17,2.34
					c-1.17-0.57-2.19-1.73-3.19-2.55c0.8-0.94,1.51-1.75,2.85-1.29c0.37,0.12,0.69-0.04,0.3-0.26c-0.4-0.23-3.11-1.96-3.26-1.8
					c-0.27,0.31,0.53,0.87,0.22,1.47c-0.23,0.45-0.61,0.83-0.93,1.22c-0.72-0.61-1.92-1.25-1.06-2.26c0.54-0.66,1.25-1.17,2.1-1.34
					c0.57-0.11,1.84,0.39,2.01-0.22c-1.09-0.52-2.17-1.04-3.26-1.56c0.18,0.8-3.35,4.52-4.13,5.46c-0.11,0.14-0.66,0.61-0.66,0.8
					c-0.01,0.43,0.62,0.1,0.66,0.08c0.49-0.18,6.82,5.11,6.97,5.47c0.1,0.28-0.22,0.57-0.03,0.73c-0.01-0.01,0.23,0.22,0.25,0.18
					c0.39-0.47,4.52-5.98,5.37-6.22c-0.79-1.21-1.59-2.43-2.37-3.65C110.69,51.33,111.26,52.02,111.39,52.47z"/>
			</g>
			<g>
				<path class="st2" d="M105.23,59.17c-2.08-1.34-5.6,1.28-6.13,1.53c-1.04,0.49-1.79-0.54-1.25-1.5c0.47-0.83,1.39-1.23,2.31-1.29
					c0.28-0.02,1.35,0.2,1.46,0.03c0.13-0.2,0.23-0.22,0.04-0.35c-0.86-0.58-1.71-1.16-2.57-1.73c-0.18,1.06-1.38,1.73-2.08,2.44
					c-0.82,0.85-1.52,1.93-1.52,3.16c0,1.13,0.68,2.14,1.68,2.66c1.14,0.59,2.32,0.12,3.32-0.51c0.63-0.39,1.25-0.86,1.92-1.17
					c1-0.47,2.3-0.06,1.95,1.27c-0.28,1.07-1.35,2.06-2.41,2.34c-0.62,0.16-1.27,0.11-1.87-0.09c-0.43-0.14-0.99-0.73-1.23-0.11
					c1.16,0.85,2.32,1.69,3.48,2.54c0.1-0.76,0.52-1.09,1.09-1.56c0.74-0.65,1.44-1.32,1.99-2.13
					C106.59,62.99,106.97,60.62,105.23,59.17z"/>
			</g>
			<g>
				<path class="st2" d="M105.23,59.17C106.15,59.77,104.64,58.68,105.23,59.17L105.23,59.17z"/>
			</g>
			<g>
				<path class="st2" d="M134.46,21.86C134.46,21.86,134.46,21.86,134.46,21.86L134.46,21.86z"/>
			</g>
			<g>
				<path class="st2" d="M141.92,19.65c-0.73,0.73-8.42-2.34-8.98-2.76c-0.29-0.12-0.3-1.32-0.71-0.83
					c-0.4,0.49-0.81,0.98-1.22,1.46c-0.42,0.51-0.84,1.01-1.26,1.51c-0.26,0.31-0.54,0.46-0.04,0.72c0.84-0.42,5.42,7.35,5.01,8.46
					c-0.72,0.38-6.92-5.06-7.08-5.42c-0.05-0.15,0.27-1.02-0.21-0.94c-0.23,0.04-0.74,0.9-0.89,1.07c-0.3,0.36-0.59,0.71-0.89,1.07
					c0.33,0.48,0.52-0.02,0.96,0.04c0.38,0.08,1.84,1.33,2.24,1.66c-0.72,0.03-2.68,0.13-2.93,0.11c-0.9,0.11-0.42-0.66-1.01-0.93
					c-0.76,0.92-1.52,1.84-2.28,2.76c-0.44,0.54-0.88,1.07-1.33,1.61c-0.05,0.07-0.05,0.03,0.05,0.11c0.33,0.27,0.1,0.17,0.57,0.01
					c0.51-0.18,6.56,4.93,6.78,5.19c0.38,0.45-0.15,0.98,0.41,1.22c0.6-0.73,1.2-1.46,1.8-2.18c0.09-0.11,0.14-0.1,0.02-0.2
					c-0.43-0.35-0.48,0.21-1,0.15c-0.53-0.09-4.39-3.37-5.89-4.61c1.82-0.07,7.29-0.27,8.2-0.3c0.3-0.01,1.14,0.9,1.07,1.22
					c-0.08,0.38-0.46,0.56,0.05,0.79c0.48-0.58,0.99-1.15,1.46-1.73l0,0l0.23-0.28c0.08-0.05,0.15-0.15,0.21-0.26l0.17-0.21
					c0.42-0.48,1.8-2.01,1.63-2.15c-0.46-0.4-0.68,0.47-1.3-0.05c-0.35-0.25-1.22-1.79-1.44-2.16c-0.26-0.45,0.61-0.9,0.96-1.12
					c0.78-0.48,3.25-1.18,3.48,0.35c0.04,0.26-0.27,0.55-0.08,0.7c0.04,0.04,0.2,0.24,0.27,0.16c0.16-0.2,2.36-2.84,3.3-3.97
					C142.15,19.83,142.04,19.69,141.92,19.65z M134.55,21.8C134.62,21.75,134.7,21.7,134.55,21.8c-0.05,0.03-0.07,0.05-0.08,0.05
					C134.48,21.85,134.51,21.83,134.55,21.8c-0.35,0.22-0.67,0.48-0.96,0.76c-0.52-0.9-1.04-1.8-1.56-2.69
					c1.18,0.49,2.35,0.98,3.52,1.48C135.19,21.45,134.85,21.61,134.55,21.8z"/>
			</g>
			<g>
				<path class="st2" d="M124.8,33.01c-2.38-1.98-5.63-1.4-7.59,0.83c-1.9,2.31-1.71,5.66,0.6,7.62c2.34,1.93,5.67,1.44,7.57-0.85
					C127.29,38.31,127.16,34.94,124.8,33.01z M124.52,39.63c-0.02,0.02-0.02,0.03-0.03,0.03c-1.23,1.29-3.36,0.1-4.51-0.73
					c-1.15-0.83-3.11-2.57-1.86-4.1c1.06-1.29,3.12-0.23,4.19,0.48c1.2,0.8,3.41,2.6,2.28,4.22
					C124.67,39.43,124.73,39.37,124.52,39.63z"/>
			</g>
			<g>
				<path class="st2" d="M124.8,33.01C125.97,33.97,124.55,32.8,124.8,33.01L124.8,33.01z"/>
			</g>
			<g>
				<path class="st2" d="M124.49,39.65c0.01-0.01,0.02-0.02,0.03-0.03c0.03-0.04,0.06-0.07,0.08-0.11
					C124.55,39.58,124.49,39.65,124.49,39.65z"/>
			</g>
			<g>
				<path class="st2" d="M118.21,42.14c0.11,0.09,0.27,0.22-0.06-0.06c-2.83-2.13-6.19-1.5-8.4,1.16c-0.99,1.19-1.98,2.38-2.96,3.57
					c0.35,0.51,0.76-0.12,1.27,0.18c0.44,0.25,6.24,5.1,6.34,5.37c0.16,0.46-0.25,0.55,0.14,0.88c0.17,0.14,4.54-5.25,4.93-6.19
					C120.16,45.27,119.61,43.35,118.21,42.14z M116.89,48.89c-0.24,0.3-0.04,0.05-0.67,0.65c-0.31,0.29-6.44-4.68-6.19-4.94
					c0.83-0.92,2.57-1.56,3.58-1.3C115.8,43.86,118.82,46.56,116.89,48.89z"/>
			</g>
		</g>
	</g>
</g>
</svg>
