<?xml version="1.0" encoding="utf-8"?>
<!-- Generator: Adobe Illustrator 24.2.1, SVG Export Plug-In . SVG Version: 6.00 Build 0)  -->
<svg version="1.1" id="Layer_1" xmlns="http://www.w3.org/2000/svg" xmlns:xlink="http://www.w3.org/1999/xlink" x="0px" y="0px"
	 viewBox="0 0 459.75 79.8" style="enable-background:new 0 0 459.75 79.8;" xml:space="preserve">
<style type="text/css">
	.st0{fill:#FFFFFF;}
</style>
<g>
	<path class="st0" d="M44.47,21.74c-3.57-2.98-8.14-4.96-12.9-4.96c-3.57,0-8.34,2.08-8.34,6.25c0,4.37,5.26,6.06,8.64,7.15
		l4.96,1.49C47.25,34.74,55.29,40,55.29,52.11c0,7.45-1.79,15.09-7.74,20.15c-5.85,4.96-13.7,7.05-21.24,7.05
		c-9.43,0-18.66-3.18-26.31-8.54l8.34-15.68c4.87,4.27,10.62,7.74,17.27,7.74c4.57,0,9.43-2.28,9.43-7.54
		c0-5.46-7.64-7.34-11.81-8.54C11.02,43.27,2.98,40.1,2.98,25.61C2.98,10.42,13.8,0.5,28.79,0.5c7.54,0,16.77,2.38,23.43,6.15
		L44.47,21.74z"/>
	<path class="st0" d="M91.83,18.96v12.51h21.94v16.48H91.83v12.9h23.13v16.48H72.38V2.48h42.58v16.48L91.83,18.96L91.83,18.96z"/>
	<path class="st0" d="M129.42,2.48h27.59c20.84,0,38.02,16.38,38.02,37.42c0,21.04-17.27,37.42-38.02,37.42h-27.59V2.48z
		 M148.87,60.85h4.37c11.61,0,21.54-6.35,21.54-20.94c0-13.4-8.83-20.94-21.34-20.94h-4.56V60.85z"/>
	<path class="st0" d="M286.87,38.51c0,24.22-17.37,41.29-41.39,41.29c-24.02,0-41.39-17.07-41.39-41.29
		C204.09,15.88,223.94,0,245.48,0C267.02,0,286.87,15.88,286.87,38.51z M224.34,38.61c0,12.9,9.53,22.33,21.14,22.33
		c11.61,0,21.14-9.43,21.14-22.33c0-10.32-9.53-19.75-21.14-19.75C233.87,18.86,224.34,28.29,224.34,38.61z"/>
	<path class="st0" d="M297.24,2.48h19.45l35.64,45.76h0.2V2.48h19.45v74.84h-19.45l-35.63-45.86h-0.2v45.86h-19.45V2.48z"/>
	<path class="st0" d="M407.34,64.32l-5.16,13h-20.65l28.79-74.84h21.24l28.19,74.84h-20.75l-4.86-13H407.34z M420.95,25.61h-0.2
		l-8.04,23.82h16.18L420.95,25.61z"/>
</g>
</svg>
