<?xml version="1.0" encoding="utf-8"?>
<!-- Generator: Adobe Illustrator 24.2.1, SVG Export Plug-In . SVG Version: 6.00 Build 0)  -->
<svg version="1.1" id="Layer_1" xmlns="http://www.w3.org/2000/svg" xmlns:xlink="http://www.w3.org/1999/xlink" x="0px" y="0px"
	 viewBox="0 0 459.75 350.07" style="enable-background:new 0 0 459.75 350.07;" xml:space="preserve">
<style type="text/css">
	.st0{fill:#766458;}
	.st1{fill:#81B3D3;}
	.st2{fill:#FFFFFF;}
</style>
<g>
	<path class="st0" d="M165.42,70l-0.2,0.23c-1.35,1.47-3.02,2.19-4.52,2.22l2.82-4.86c1.81-3.14,0.14-6.1-2.68-6.1
		c-2.3,0-4.09,0.92-5.82,3.92l-1.47,2.56l-1.23,2.1l-0.15,0.18c-2.16,2.51-4.26,4.49-5.59,4.49c-0.66,0-1.04-0.46-0.35-1.64
		l6.42-11.2h2.45l0.86-1.44h-2.48l2.82-4.89h-2.99l-2.82,4.9h-2.71l-0.86,1.44h2.73l-6.02,10.42c-1.27,2.22-0.37,4.26,2.04,4.26
		c1.74,0,3.66-1.31,5.51-3.08c-0.01,3.82,5.3,4.56,8.54,0.46h0.66c1.78,0,4.61-1.09,6.13-2.91C166.34,70.63,165.83,70.17,165.42,70z
		 M159.03,70.2h-0.15c-0.98,0-1.76,0.81-1.76,1.79c0,0.37,0.12,0.72,0.29,1.01l-0.03,0.06c-1.41,2.42-4.84,1.96-3.05-1.15l2.27-3.94
		l1.44-2.45c2.1-3.57,4.98-2.16,3.17,0.95L159.03,70.2z"/>
	<path class="st0" d="M206.88,70l-0.2,0.23c-2.16,2.51-4.92,4.49-7.02,4.49c-1.84,0-2.94-1.15-1.55-3.57l0.29-0.52
		c1.93,0.81,5.56,0.43,7.8-3.46l0.43-0.75c1.61-2.76,0.06-4.84-2.39-4.84c-2.42,0-4.35,1.27-5.61,3.46l-2.91,4.98l-0.17,0.2
		c-2.16,2.5-4.26,4.49-5.59,4.49c-0.66,0-1.04-0.46-0.35-1.64l4.32-7.57c1.29-2.27,0.06-3.92-1.61-3.92c-1.3,0-2.68,0.72-4.18,2.27
		l4.78-8.32h-2.99l-8.35,14.49l-0.17,0.19c-2.16,2.51-4.26,4.49-5.59,4.49c-0.66,0-1.04-0.46-0.35-1.64l6.42-11.2h2.45l0.86-1.44
		h-2.48l2.82-4.89h-2.99l-2.82,4.9h-2.71l-0.86,1.44h2.73l-6.02,10.42c-1.27,2.22-0.37,4.26,2.04,4.26c1.21,0,2.52-0.64,3.82-1.63
		l-0.77,1.34h3.02l4.55-7.92c4.61-5.79,6.65-5.04,5.35-2.82l-3.89,6.77c-1.27,2.22-0.37,4.26,2.05,4.26c1.78,0,3.76-1.38,5.65-3.22
		c0.14,1.86,1.65,3.22,4.05,3.22c3.4,0,6.77-2.65,9.24-5.53C207.8,70.63,207.28,70.17,206.88,70z M201.18,65.8
		c1.73-2.96,4.78-2.48,3,0.63l-0.43,0.75c-1.44,2.45-3.37,2.39-4.49,1.99L201.18,65.8z"/>
	<path class="st0" d="M316.05,70l-0.2,0.23c-1.1,1.29-2.42,2.45-3.6,3.25c0.95-2.85,0.75-7.23,2.59-11.06l-2.25-1.21
		c-1.24,1.7-3.94,5.62-6.65,8.78v0l-0.2,0.23c-2.16,2.51-4.26,4.49-5.59,4.49c-0.66,0-1.04-0.46-0.34-1.64l6.39-11.2h-2.99
		l-5.33,9.3c-2.27,2.07-4.03,3.22-4.61,2.96c-0.75-0.31,0-1.44,0.38-2.07l5.84-10.19h-3L291.8,70l-0.2,0.23
		c-1.35,1.47-3.02,2.19-4.52,2.22l2.82-4.87c1.81-3.14,0.15-6.1-2.68-6.1c-2.3,0-4.09,0.92-5.82,3.92l-1.47,2.56l-1.23,2.1
		l-0.15,0.18c-2.16,2.51-4.92,4.49-7.02,4.49c-1.84,0-2.94-1.15-1.56-3.57l0.29-0.52c1.93,0.81,5.56,0.43,7.8-3.45l0.43-0.75
		c1.61-2.76,0.06-4.84-2.39-4.84c-2.42,0-4.35,1.27-5.62,3.45l-2.9,4.98l-0.17,0.2c-2.48,2.85-4.61,4.69-6.97,5.7l6.71-11.46h-1.76
		c0-1.24-1.27-2.88-3.14-2.88c-1.61,0-3.86,1.27-5.13,3.46L254.27,70c0,0-0.01,0-0.01,0l-0.2,0.23c-2.16,2.5-4.26,4.49-5.59,4.49
		c-0.66,0-1.04-0.46-0.35-1.64l2.99-5.24c1.04-1.81,0.55-2.88-0.43-4.06l-1.67-2.02c-0.43-0.55-0.43-1.15,0.17-1.73l-1.55-1.7
		c-1.7,1.52-1.84,3.23-0.78,4.61l0.26,0.35c-1.32,1.87-3.11,4.4-5.07,6.71l0,0l-0.2,0.23c-1.35,1.47-3.02,2.19-4.52,2.22l2.82-4.87
		c1.81-3.14,0.14-6.1-2.68-6.1c-2.3,0-4.09,0.92-5.81,3.92l-1.47,2.56l-1.23,2.1l-0.15,0.17c-2.48,2.85-4.61,4.69-6.97,5.7
		l6.71-11.46h-1.76c0-1.24-1.27-2.88-3.14-2.88c-1.61,0-3.86,1.27-5.13,3.46l-4.2,7.26c-1.27,2.22-0.38,4.26,2.04,4.26
		c0.84,0,1.84-0.38,2.85-1.01l-0.84,1.41c-4.03,1.24-6.56,2.88-6.56,5.13c0,2.88,4.4,3.48,6.56-0.2l2.27-3.95
		c2.4-0.75,4.74-2.15,7.18-4.48c-0.02,3.83,5.29,4.58,8.54,0.48h0.66c1.79,0,4.61-1.09,6.13-2.91l0,0c1.44-1.67,2.56-3.17,4.95-6.42
		l0.4,0.49c0.37,0.49,0.52,1.09,0.17,1.7l-3.17,5.5c-1.27,2.22-0.38,4.26,2.04,4.26c1.52,0,3.18-1,4.8-2.43
		c-0.05,1.39,0.88,2.43,2.6,2.43c0.83,0,1.84-0.38,2.85-1.01L257,76.97c-4.03,1.24-6.56,2.88-6.56,5.13c0,2.88,4.4,3.48,6.56-0.2
		l2.27-3.94c2.44-0.76,4.83-2.21,7.32-4.62c0.13,1.88,1.65,3.24,4.06,3.24c2.44,0,4.86-1.37,6.95-3.2
		c-0.12,3.92,5.27,4.72,8.54,0.58h0.66c0.94,0,2.16-0.31,3.33-0.86c-0.81,2.08-0.06,3.48,1.65,3.48c1.64,0,3.48-1.5,4.92-2.88
		c-0.29,1.61,0.66,2.88,2.56,2.88c2.48,0,5.33-2.65,7.8-5.53l0,0c1.7-1.96,3.2-4.06,4.26-5.47c-1.18,3.11-0.55,8.69-3.4,8.69
		c-1.01,0-1.41-1.09-1.41-1.09l-1.87,0.98c0,0,0.55,2.42,3.28,2.42c0.29,0,0.55-0.03,0.83-0.06c0.03,0,0.06-0.03,0.09-0.03
		c3.05-0.4,6.07-2.82,8.32-5.44C317,70.58,316.48,70.12,316.05,70z M273.06,65.8c1.73-2.96,4.78-2.48,2.99,0.63l-0.43,0.75
		c-1.44,2.45-3.37,2.39-4.49,1.99L273.06,65.8z M215.89,81.4c-0.63,1.12-1.64,0.95-1.64,0.14c0-0.78,0.72-1.67,2.99-2.56
		L215.89,81.4z M217.27,74.72c-0.66,0-1.04-0.46-0.35-1.64l4.18-7.29c1.61-2.79,4.81-2.07,3.34,0.63l-2.27,3.97
		C220.35,73.31,218.54,74.72,217.27,74.72z M235.67,70.2h-0.15c-0.98,0-1.76,0.81-1.76,1.79c0,0.37,0.12,0.72,0.29,1.01l-0.03,0.06
		c-1.41,2.42-4.84,1.96-3.05-1.15l2.27-3.94l1.44-2.45c2.1-3.57,4.98-2.16,3.17,0.95L235.67,70.2z M254.49,81.4
		c-0.63,1.12-1.64,0.95-1.64,0.14c0-0.78,0.72-1.67,2.99-2.56L254.49,81.4z M255.87,74.72c-0.66,0-1.04-0.46-0.35-1.64l4.18-7.29
		c1.61-2.79,4.81-2.07,3.34,0.63l-2.27,3.97C258.96,73.31,257.14,74.72,255.87,74.72z M285.42,70.2h-0.15
		c-0.98,0-1.76,0.81-1.76,1.79c0,0.37,0.12,0.72,0.29,1.01l-0.03,0.06c-1.41,2.42-4.84,1.96-3.05-1.15l2.27-3.94l1.44-2.45
		c2.1-3.57,4.98-2.16,3.17,0.95L285.42,70.2z"/>
</g>
<rect x="101.42" y="66.82" class="st0" width="28.92" height="1.96"/>
<rect x="328.42" y="66.82" class="st0" width="28.92" height="1.96"/>
<g>
	<path class="st1" d="M163.18,0h7.71l-1.21,44.92h-14.52l-1.98-18.54l-1.98,18.54h-14.59L135.47,0h7.65l0.64,37.15h0.83L149.36,0
		h7.58l4.91,37.15h0.76L163.18,0z"/>
	<path class="st1" d="M195.03,37.15v7.77h-20.9V0h20.9v7.7h-13.25v10.84h10.57v7.7h-10.57v10.91H195.03z"/>
	<path class="st1" d="M216.37,37.15v7.77h-18.28V0h7.65v37.15H216.37z"/>
	<path class="st1" d="M232.62,28.36l7.71-1.8v13.6c0,2.57-2.17,4.75-4.71,4.75h-11.47c-2.61,0-4.71-2.18-4.71-4.75V4.75
		c0-2.63,2.1-4.75,4.71-4.75h11.47c2.55,0,4.71,2.12,4.71,4.75v9.11l-7.71,1.8V7.7h-5.54v29.45h5.54L232.62,28.36L232.62,28.36z"/>
	<path class="st1" d="M261.09,0c2.55,0,4.72,2.12,4.72,4.75v35.42c0,2.57-2.17,4.75-4.72,4.75h-11.47c-2.61,0-4.71-2.18-4.71-4.75
		V4.75c0-2.63,2.1-4.75,4.71-4.75H261.09z M258.1,7.7h-5.54v29.45h5.54V7.7z"/>
	<path class="st1" d="M290.84,0h7.58v44.92h-7.65V22.84l-3.06,11.42h-7.45l-2.99-11.42v22.07h-7.65V0h7.58l6.82,21.69L290.84,0z"/>
	<path class="st1" d="M323.13,37.15v7.77h-20.9V0h20.9v7.7h-13.25v10.84h10.58v7.7h-10.58v10.91H323.13z"/>
</g>
<g>
	<path class="st2" d="M44.47,157.61c-3.57-2.98-8.14-4.96-12.9-4.96c-3.57,0-8.34,2.08-8.34,6.25c0,4.37,5.26,6.06,8.64,7.15
		l4.96,1.49c10.42,3.08,18.46,8.34,18.46,20.45c0,7.45-1.79,15.09-7.74,20.15c-5.85,4.96-13.7,7.05-21.24,7.05
		c-9.43,0-18.66-3.18-26.31-8.54l8.34-15.68c4.87,4.27,10.62,7.74,17.27,7.74c4.57,0,9.43-2.28,9.43-7.54
		c0-5.46-7.64-7.34-11.81-8.54c-12.21-3.48-20.25-6.65-20.25-21.14c0-15.19,10.82-25.11,25.81-25.11c7.54,0,16.77,2.38,23.43,6.15
		L44.47,157.61z"/>
	<path class="st2" d="M91.83,154.83v12.51h21.94v16.48H91.83v12.9h23.13v16.48H72.38v-74.84h42.58v16.48L91.83,154.83L91.83,154.83z
		"/>
	<path class="st2" d="M129.42,138.35h27.59c20.84,0,38.02,16.38,38.02,37.42c0,21.04-17.27,37.42-38.02,37.42h-27.59V138.35z
		 M148.87,196.72h4.37c11.61,0,21.54-6.35,21.54-20.94c0-13.4-8.83-20.94-21.34-20.94h-4.56V196.72z"/>
	<path class="st2" d="M286.87,174.38c0,24.22-17.37,41.29-41.39,41.29c-24.02,0-41.39-17.07-41.39-41.29
		c0-22.63,19.85-38.51,41.39-38.51C267.02,135.87,286.87,151.75,286.87,174.38z M224.34,174.48c0,12.9,9.53,22.33,21.14,22.33
		c11.61,0,21.14-9.43,21.14-22.33c0-10.32-9.53-19.75-21.14-19.75C233.87,154.73,224.34,164.16,224.34,174.48z"/>
	<path class="st2" d="M297.24,138.35h19.45l35.64,45.76h0.2v-45.76h19.45v74.84h-19.45l-35.63-45.86h-0.2v45.86h-19.45V138.35z"/>
	<path class="st2" d="M407.35,200.19l-5.16,13h-20.65l28.79-74.84h21.24l28.19,74.84h-20.75l-4.86-13H407.35z M420.95,161.48h-0.2
		l-8.04,23.82h16.18L420.95,161.48z"/>
</g>
<g>
	<path class="st2" d="M108.08,287.74c7.66-2.59,8.24-12.18,0.69-12.18c-2.08,0-4.56,1.46-6.27,4.45l-10.21,17.65
		c-0.48,0.84-0.95,1.53-1.46,2.15c-2.63-3.61-1.86-9.01,1.82-11.38l-1.53-1.93c-7.95,5.07-5.62,19.69,7.66,19.69
		C110.12,306.19,115.38,292.59,108.08,287.74z M98.71,303.28c-2.26,0-4.05-0.51-5.47-1.31c0.66-0.77,1.31-1.71,1.9-2.7l6.38-11.05
		l1.02,0.11C111.44,290.19,107.9,303.28,98.71,303.28z M102.79,285.99l3.06-5.25c2.77-4.78,6.31-1.97,4.41,1.6
		C108.81,285.08,106.66,285.92,102.79,285.99z"/>
	<path class="st2" d="M140.16,300c-0.63,2.25,0.57,4.08,3.15,4.08c1.53,0,3.43-0.98,5.25-2.48c0.18,1.46,1.35,2.48,3.28,2.48
		c2.02,0,4.23-1.39,6.39-3.36c-0.42,2.05,0.54,3.36,2.41,3.36c2.08,0,4.41-1.9,6.24-3.65c-0.36,2.04,0.84,3.65,3.25,3.65
		c3.14,0,6.75-3.35,9.88-7c-0.02-0.05-0.07-0.1-0.1-0.15c2.1-2.44,3.95-5.03,5.27-6.78c-1.5,3.94-0.69,11.01-4.3,11.01
		c-1.27,0-1.79-1.39-1.79-1.39l-2.37,1.24c0,0,0.69,3.06,4.16,3.06c0.36,0,0.69-0.04,1.06-0.07c0.04,0,0.07-0.04,0.11-0.04
		c2.79-0.37,5.55-2.06,7.94-4.23c0.06,2.5,1.99,4.33,5.15,4.33c4.3,0,8.57-3.35,11.71-7c-0.25-0.51-0.91-1.09-1.42-1.31l-0.26,0.29
		c-2.73,3.17-6.24,5.69-8.9,5.69c-2.33,0-3.72-1.46-1.97-4.52l0.36-0.66c2.44,1.02,7.04,0.55,9.88-4.38l0.55-0.95
		c2.04-3.5,0.07-6.13-3.03-6.13c-3.06,0-5.51,1.6-7.11,4.38l-3.68,6.32c-0.04-0.01-0.07-0.04-0.1-0.05l-0.26,0.29
		c-1.39,1.64-3.06,3.1-4.56,4.12c1.2-3.61,0.95-9.15,3.28-14l-2.84-1.53c-1.57,2.15-5,7.11-8.42,11.12
		c0.03,0.05,0.07,0.09,0.11,0.14l-0.14,0.15c-2.73,3.17-5.4,5.69-7.08,5.69c-0.84,0-1.31-0.58-0.44-2.08l8.1-14.19h-3.79
		l-6.75,11.78c-2.88,2.63-5.1,4.08-5.83,3.76c-0.95-0.4,0-1.82,0.48-2.63l7.4-12.91h-3.79l-6.04,10.45c-0.1-0.06-0.2-0.12-0.29-0.16
		l-0.25,0.29c-2.73,3.17-5.4,5.69-7.08,5.69c-0.84,0-1.31-0.58-0.44-2.08l6.13-10.72h-2.15c0.15-1.6-1.49-3.83-3.98-3.83
		c-2.04,0-4.89,1.61-6.49,4.38l-3.85,6.64c-0.19-0.15-0.39-0.29-0.58-0.36l-0.26,0.29c-2.73,3.17-6.24,5.69-8.9,5.69
		c-2.33,0-3.72-1.46-1.97-4.52l3.9-6.78c2.19-3.76,6.05-3.14,3.79,0.8l-0.55,0.95h3.1l0.55-0.95c2.04-3.5,0.07-6.13-3.03-6.13
		c-3.06,0-5.51,1.61-7.11,4.38l-3.77,6.47c-0.12-0.08-0.24-0.15-0.35-0.19l-0.26,0.29c-2.73,3.17-6.24,5.69-8.9,5.69
		c-2.33,0-3.72-1.46-1.97-4.52l0.36-0.66c2.44,1.02,7.04,0.55,9.88-4.38l0.55-0.95c2.04-3.5,0.07-6.13-3.03-6.13
		c-3.06,0-5.51,1.61-7.11,4.38l-3.98,6.82c-2.37,4.05-0.33,7.77,4.16,7.77c3.34,0,6.66-2.02,9.44-4.63
		c-0.1,2.65,1.87,4.63,5.14,4.63C134.43,304.08,137.51,302.34,140.16,300z M198.19,290.44c2.19-3.76,6.05-3.14,3.79,0.8l-0.55,0.95
		c-1.82,3.1-4.27,3.03-5.69,2.52L198.19,290.44z M144,299.67l5.29-9.23c2.04-3.54,6.09-2.63,4.23,0.8l-2.95,5.18
		c-2.3,3.61-4.56,5.32-6.13,5.32C143.6,301.74,143.12,301.16,144,299.67z M119.81,290.44c2.19-3.76,6.05-3.14,3.79,0.8l-0.55,0.95
		c-1.82,3.1-4.27,3.03-5.69,2.52L119.81,290.44z"/>
	<path class="st2" d="M248.4,304.08c4.3,0,8.57-3.35,11.71-7c-0.25-0.51-0.91-1.09-1.42-1.31l-0.25,0.29
		c-2.74,3.17-6.24,5.69-8.9,5.69c-2.33,0-3.72-1.46-1.97-4.52l0.37-0.66c2.44,1.02,7.04,0.55,9.88-4.38l0.55-0.95
		c2.04-3.5,0.07-6.13-3.03-6.13c-3.06,0-5.5,1.6-7.11,4.38l-3.69,6.34c-0.04-0.02-0.08-0.05-0.11-0.06l-0.26,0.29
		c-2.73,3.17-5.4,5.69-7.07,5.69c-0.84,0-1.31-0.58-0.44-2.08l5.47-9.59c1.64-2.88,0.07-4.96-2.04-4.96c-1.64,0-3.39,0.91-5.29,2.88
		l6.05-10.54h-3.79l-10.7,18.56c-0.15-0.1-0.3-0.19-0.43-0.25l-0.26,0.29c-2.74,3.17-5.4,5.69-7.08,5.69
		c-0.84,0-1.31-0.58-0.44-2.08l8.13-14.19h3.1l1.09-1.82h-3.14l3.57-6.2h-3.79l-3.57,6.2h-3.43l-1.09,1.82h3.46l-7.62,13.2
		c-1.6,2.81-0.47,5.4,2.59,5.4c1.88,0,3.94-1.22,5.96-2.97l-1.5,2.61h3.83l5.76-10.03c5.84-7.33,8.42-6.38,6.78-3.57l-4.92,8.57
		c-1.6,2.81-0.47,5.4,2.59,5.4c2.3,0,4.86-1.81,7.3-4.22C243.37,302.3,245.29,304.08,248.4,304.08z M251.46,290.44
		c2.19-3.76,6.06-3.14,3.79,0.8l-0.55,0.95c-1.82,3.1-4.27,3.03-5.69,2.52L251.46,290.44z"/>
	<path class="st2" d="M363.42,295.77l-0.26,0.29c-2.73,3.17-5.4,5.69-7.07,5.69c-0.84,0-1.31-0.58-0.44-2.08l12.84-22.21h-3.79
		l-5.58,9.63c-0.66-1.06-1.9-1.97-3.47-1.97c-2.04,0-4.89,1.6-6.49,4.38l-3.71,6.41c-0.08-0.05-0.16-0.1-0.24-0.13l-0.26,0.29
		c-2.73,3.17-5.4,5.69-7.07,5.69c-0.84,0-1.31-0.58-0.44-2.08l5.47-9.59c1.64-2.88,0.07-4.96-2.04-4.96c-1.64,0-3.35,0.88-5.25,2.85
		l1.42-2.48h-3.79l-6.06,10.49c-0.12-0.08-0.25-0.15-0.36-0.2l-0.26,0.29c-2.73,3.17-5.4,5.69-7.07,5.69
		c-0.84,0-1.31-0.58-0.44-2.08l6.13-10.72h-2.15c0.15-1.6-1.49-3.83-3.98-3.83c-2.04,0-4.89,1.6-6.49,4.38l-3.67,6.33l-0.21,0.23
		c-2.73,3.17-5.4,5.69-7.07,5.69c-0.84,0-1.31-0.58-0.44-2.08l3.79-6.64c1.31-2.3,0.69-3.65-0.55-5.14l-2.12-2.55
		c-0.55-0.69-0.55-1.46,0.22-2.19l-1.97-2.15c-2.15,1.93-2.33,4.08-0.99,5.83l0.33,0.44c-1.68,2.37-3.94,5.58-6.42,8.5
		c0.07,0.11,0.16,0.21,0.26,0.32c-3.13,3.59-5.78,5.92-8.76,7.19l4.81-8.24H286l-0.4,0.66c-2.01,3.54-4.3,6.05-7.26,6.05
		c-2.59,0-3.06-2.59-0.8-6.46l1.06-1.86c0.69,0.11,1.39,0.18,2.15,0.18c13.49,0,20.02-18.05,8.13-18.05c-2.08,0-4.56,1.46-6.27,4.45
		l-5.91,10.17c-2.23-1.17-3.39-3.28-3.39-5.4c0-1.75,0.8-3.5,2.44-4.78l-1.24-2.23c-2.7,1.93-3.9,4.52-3.9,7.07
		c0,3.03,1.72,5.94,4.78,7.55l-1.13,1.97c-2.66,4.6-2.19,9.7,3.17,9.7c1.6,0,2.95-0.47,4.12-1.2l-0.99,1.71
		c-5.14,1.57-8.31,3.65-8.31,6.49c0,3.65,5.58,4.41,8.31-0.25l2.92-5c3.94-1.24,7.81-3.94,11.96-8.75
		c-0.06-0.12-0.14-0.24-0.24-0.36c1.68-1.98,3.11-3.89,5.97-7.78l0.51,0.62c0.47,0.62,0.66,1.39,0.22,2.15l-4.01,6.96
		c-1.61,2.81-0.47,5.4,2.59,5.4c1.91,0,3.99-1.24,6.03-3.04c-0.04,1.75,1.15,3.04,3.31,3.04c1.53,0,3.43-0.98,5.25-2.48
		c0.18,1.46,1.35,2.48,3.28,2.48c1.82,0,3.79-1.13,5.74-2.79l-1.4,2.42h3.83l5.8-10.1c5.8-7.26,8.39-6.31,6.75-3.5l-4.92,8.57
		c-1.6,2.81-0.47,5.4,2.59,5.4c2.02,0,4.23-1.39,6.38-3.35c-0.2,1.9,1.01,3.35,3.29,3.35c1.53,0,3.43-0.98,5.25-2.48
		c0.18,1.46,1.35,2.48,3.28,2.48c3.14,0,6.75-3.35,9.88-7C364.58,296.57,363.93,295.98,363.42,295.77z M285.46,281.61
		c1.13-1.93,2.37-2.77,3.43-2.77c6.02,0,1.79,12.25-8.13,12.25h-0.77L285.46,281.61z M277.4,310.21c-0.8,1.42-2.08,1.2-2.08,0.18
		c0-0.98,0.88-2.11,3.79-3.25L277.4,310.21z M317.09,296.42c-2.3,3.61-4.56,5.32-6.13,5.32c-0.84,0-1.31-0.58-0.44-2.08l5.29-9.23
		c2.04-3.54,6.09-2.63,4.23,0.8L317.09,296.42z M353.79,296.2c-2.3,3.76-4.63,5.54-6.24,5.54c-0.84,0-1.31-0.58-0.44-2.08l5.29-9.23
		c2.04-3.54,6.09-2.63,4.23,0.8h0.04L353.79,296.2z"/>
	<path class="st2" d="M236.71,331.76l-0.25,0.29c-2.73,3.17-5.4,5.69-7.07,5.69c-0.84,0-1.31-0.58-0.44-2.08l5.47-9.59
		c1.64-2.88,0.07-4.96-2.04-4.96c-1.64,0-3.35,0.88-5.25,2.84l1.42-2.48h-3.79l-6.11,10.57c-0.17-0.12-0.33-0.23-0.48-0.29
		l-0.26,0.29c-1.71,1.86-3.83,2.77-5.73,2.81l3.57-6.16c2.3-3.98,0.18-7.73-3.39-7.73c-2.92,0-5.18,1.17-7.37,4.96l-1.86,3.25
		l-1.63,2.78c-0.12-0.08-0.23-0.15-0.34-0.19l-0.26,0.29c-3.14,3.61-5.8,5.94-8.79,7.22l10.39-17.8h-3.79l-6.71,11.67
		c-2.92,2.7-5.18,4.19-5.91,3.86c-0.95-0.4,0-1.82,0.47-2.63l7.4-12.91h-3.79l-6.05,10.47c-0.11-0.07-0.23-0.14-0.33-0.19
		l-0.25,0.29c-2.73,3.17-5.4,5.69-7.07,5.69c-0.84,0-1.31-0.58-0.44-2.08l5.47-9.59c1.64-2.88,0.07-4.96-2.04-4.96
		c-1.64,0-3.35,0.88-5.25,2.84l1.42-2.48h-3.79l-6.06,10.49c-0.12-0.08-0.25-0.15-0.36-0.2l-0.25,0.29
		c-2.73,3.17-5.4,5.69-7.08,5.69c-0.84,0-1.31-0.58-0.44-2.08l6.13-10.72h-2.15c0.15-1.6-1.5-3.83-3.98-3.83
		c-2.04,0-4.89,1.6-6.49,4.38l-3.92,6.76c-0.26-0.23-0.56-0.42-0.83-0.49l-0.26,0.29c-2.73,3.17-6.09,5.69-9.85,5.69
		c-2.59,0-4.16-2.59-1.9-6.46l1.06-1.86c0.69,0.11,1.39,0.18,2.15,0.18c4.05,0,8.64-2.08,11.63-7.29c1.06-1.86,1.53-3.61,1.53-5.1
		c0-3.43-2.23-5.65-5.03-5.65c-2.08,0-4.56,1.46-6.27,4.45l-5.91,10.18c-2.22-1.17-3.39-3.28-3.39-5.4c0-1.75,0.8-3.5,2.44-4.78
		l-1.24-2.23c-2.7,1.93-3.9,4.52-3.9,7.08c0,3.03,1.71,5.94,4.78,7.55l-1.13,1.97c-2.66,4.6-1.09,9.7,4.27,9.7
		c4.24,0,7.35-1.89,9.97-4.37c-0.83,2.38,0.37,4.37,3.06,4.37c1.53,0,3.43-0.98,5.25-2.48c0.18,1.46,1.35,2.48,3.28,2.48
		c1.82,0,3.79-1.13,5.74-2.78l-1.4,2.42h3.83l5.8-10.1c5.8-7.26,8.39-6.31,6.75-3.5l-4.92,8.57c-1.6,2.81-0.47,5.4,2.59,5.4
		c2.04,0,4.28-1.42,6.47-3.42c-0.46,2.09,0.51,3.42,2.4,3.42c1.82,0,3.9-1.53,5.62-3.06l-2.08,3.57c-5.14,1.53-8.35,3.65-8.35,6.49
		c0,3.65,5.58,4.41,8.31-0.25l2.92-5c3.17-1,6.3-2.96,9.56-6.2c-0.52,5.3,6.53,6.5,10.79,1.13h0.84c1.38,0,3.26-0.52,4.95-1.46
		l-2.55,4.41h3.83l5.8-10.1c5.8-7.26,8.39-6.31,6.75-3.5l-4.92,8.57c-1.6,2.81-0.48,5.4,2.59,5.4c3.14,0,6.75-3.35,9.88-7
		C237.88,332.57,237.22,331.98,236.71,331.76z M142.33,317.61c1.13-1.93,2.37-2.77,3.43-2.77c1.42,0,2.08,0.95,2.08,2.33
		c0,3.54-4.3,9.92-10.21,9.92h-0.77L142.33,317.61z M155.68,332.42c-2.3,3.61-4.56,5.32-6.13,5.32c-0.84,0-1.31-0.58-0.44-2.08
		l5.29-9.23c2.04-3.54,6.09-2.63,4.23,0.8L155.68,332.42z M184.53,346.2c-0.8,1.42-2.08,1.2-2.08,0.18c0-0.98,0.91-2.11,3.83-3.25
		L184.53,346.2z M210.06,332.02h-0.18c-1.24,0-2.23,1.02-2.23,2.26c0,0.47,0.15,0.91,0.37,1.27l-0.04,0.07
		c-1.79,3.06-6.13,2.48-3.87-1.46l2.88-5l1.82-3.1c2.66-4.52,6.31-2.73,4.01,1.2L210.06,332.02z"/>
	<path class="st2" d="M324.62,333.08c-0.22-0.58-0.88-1.17-1.42-1.31l-0.26,0.29c-1.39,1.64-3.06,3.1-4.56,4.12
		c1.2-3.61,0.95-9.15,3.28-14l-2.85-1.53c-1.57,2.15-5,7.11-8.42,11.12c0.01,0.01,0.02,0.02,0.02,0.03
		c-0.02-0.01-0.03-0.02-0.05-0.03l-0.25,0.29c-2.74,3.17-5.4,5.69-7.08,5.69c-0.84,0-1.64-0.84-1.64-2.55v-1.57
		c2.66,0.33,5.47-1.42,7.26-4.52l1.02-1.75c3.54-6.05-2.23-8.06-6.09-4.52l5.4-9.37h-3.79l-10.82,18.77
		c-0.23-0.19-0.48-0.36-0.69-0.46l-0.26,0.29c-2.73,3.17-6.24,5.69-8.9,5.69c-2.33,0-3.72-1.46-1.97-4.52l3.9-6.78
		c2.19-3.76,6.05-3.14,3.79,0.8l-0.55,0.95h3.1l0.55-0.95c2.04-3.5,0.07-6.13-3.03-6.13c-3.06,0-5.51,1.6-7.11,4.38l-3.73,6.4
		c-0.08-0.05-0.16-0.1-0.23-0.13l-0.26,0.29c-2.73,3.17-5.4,5.69-7.07,5.69c-0.84,0-1.31-0.58-0.44-2.08l8.1-14.19h-3.79
		l-6.75,11.78c-2.88,2.63-5.1,4.08-5.84,3.76c-0.95-0.4,0-1.82,0.47-2.63l7.4-12.91h-3.79l-7.37,12.74
		c-0.82,0.75-1.66,1.41-2.45,1.95c1.2-3.61,0.95-9.15,3.28-14l-2.84-1.53c-1.57,2.15-10.32,13.75-13.75,17.76
		c0.33,0.47,0.88,0.95,1.42,1.31c2.15-2.48,9.37-11.78,10.72-13.57c-1.5,3.94-0.69,11.01-4.3,11.01c-1.28,0-1.79-1.39-1.79-1.39
		l-2.37,1.24c0,0,0.69,3.06,4.16,3.06c0.37,0,0.69-0.04,1.06-0.07c0.04,0,0.07-0.04,0.11-0.04c1.93-0.25,3.84-1.14,5.63-2.38
		c-0.01,1.54,0.92,2.49,2.51,2.49c2.08,0,4.41-1.9,6.23-3.65c-0.36,2.04,0.84,3.65,3.25,3.65c2.36,0,4.98-1.89,7.47-4.38
		c0.03,2.52,1.97,4.38,5.14,4.38c3.08,0,6.14-1.72,8.78-4.03l-2.11,3.67h3.83l4.34-7.55v3.03c0,3.24,0.62,4.89,3.68,4.89
		c3.14,0,6.75-3.35,9.88-7c-0.01-0.01-0.02-0.02-0.02-0.03c0.02,0.01,0.03,0.02,0.05,0.03c2.15-2.48,4.05-5.14,5.4-6.93
		c-1.49,3.94-0.69,11.01-4.3,11.01c-1.27,0-1.79-1.39-1.79-1.39l-2.37,1.24c0,0,0.69,3.06,4.16,3.06c0.36,0,0.69-0.04,1.06-0.07
		c0.03,0,0.07-0.04,0.11-0.04C317.95,339.46,321.78,336.4,324.62,333.08z M299.43,330.09l1.09-1.9c4.38-6.09,7.37-4.41,6.02-2.12
		l-1.82,3.14C303.59,331.18,300.27,332.57,299.43,330.09z"/>
	<path class="st2" d="M324.47,335.67c-1.24,0-2.19,0.98-2.19,2.23c0,1.24,0.95,2.19,2.19,2.19c1.24,0,2.22-0.95,2.22-2.19
		C326.7,336.65,325.71,335.67,324.47,335.67z"/>
	<polygon class="st2" points="324.66,334.17 328.49,334.17 340.37,313.46 336.58,313.46 	"/>
</g>
<g>
	<path class="st2" d="M80.41,277.58c0,0.29-0.06,0.59-0.17,0.88c-0.11,0.29-0.28,0.56-0.51,0.8c-0.23,0.24-0.5,0.43-0.83,0.57
		c-0.33,0.15-0.69,0.22-1.1,0.22c-0.45,0-0.89-0.08-1.3-0.25c-0.42-0.17-0.77-0.41-1.06-0.73c-0.25-0.29-0.44-0.64-0.57-1.05
		c-0.14-0.41-0.2-0.83-0.2-1.29c0-0.86,0.15-1.65,0.46-2.37c0.3-0.72,0.74-1.36,1.3-1.93c0.25-0.25,0.53-0.48,0.85-0.69
		c0.32-0.21,0.61-0.39,0.9-0.54c0.28-0.15,0.52-0.26,0.73-0.35c0.2-0.09,0.33-0.15,0.37-0.17l1.35,2c-0.25,0.09-0.52,0.21-0.83,0.35
		c-0.31,0.15-0.59,0.33-0.86,0.54c-0.27,0.21-0.5,0.47-0.68,0.76c-0.18,0.29-0.28,0.63-0.3,1.02c0.65,0,1.23,0.19,1.73,0.58
		C80.16,276.31,80.41,276.86,80.41,277.58z M88.28,277.58c0,0.29-0.06,0.59-0.17,0.88c-0.11,0.29-0.28,0.56-0.51,0.8
		c-0.23,0.24-0.5,0.43-0.83,0.57c-0.33,0.15-0.69,0.22-1.1,0.22c-0.45,0-0.88-0.08-1.3-0.25c-0.42-0.17-0.77-0.41-1.07-0.73
		c-0.25-0.29-0.44-0.64-0.57-1.05c-0.13-0.41-0.2-0.83-0.2-1.29c0-0.86,0.15-1.65,0.46-2.37c0.3-0.72,0.74-1.36,1.3-1.93
		c0.25-0.25,0.53-0.48,0.85-0.69c0.31-0.21,0.61-0.39,0.9-0.54c0.28-0.15,0.52-0.26,0.73-0.35c0.2-0.09,0.33-0.15,0.37-0.17l1.35,2
		c-0.25,0.09-0.52,0.21-0.83,0.35c-0.3,0.15-0.59,0.33-0.86,0.54c-0.27,0.21-0.5,0.47-0.68,0.76c-0.18,0.29-0.28,0.63-0.31,1.02
		c0.65,0,1.23,0.19,1.73,0.57C88.03,276.31,88.28,276.86,88.28,277.58z"/>
</g>
<g>
	<path class="st2" d="M353.44,336.52c0-0.29,0.06-0.59,0.17-0.88c0.11-0.29,0.28-0.56,0.51-0.8c0.23-0.24,0.5-0.43,0.83-0.57
		c0.33-0.15,0.69-0.22,1.1-0.22c0.45,0,0.89,0.08,1.3,0.25c0.42,0.17,0.77,0.41,1.06,0.73c0.25,0.29,0.44,0.64,0.58,1.05
		c0.13,0.41,0.2,0.83,0.2,1.29c0,0.85-0.15,1.65-0.46,2.37c-0.31,0.72-0.74,1.36-1.3,1.93c-0.25,0.25-0.53,0.48-0.85,0.69
		c-0.31,0.21-0.61,0.39-0.9,0.54c-0.28,0.15-0.52,0.27-0.73,0.35c-0.2,0.09-0.32,0.15-0.37,0.17l-1.35-2
		c0.25-0.09,0.52-0.21,0.83-0.35c0.3-0.15,0.59-0.33,0.86-0.54c0.27-0.21,0.5-0.47,0.68-0.76c0.18-0.29,0.28-0.63,0.3-1.01
		c-0.65,0-1.23-0.19-1.72-0.58C353.69,337.8,353.44,337.24,353.44,336.52z M345.57,336.52c0-0.29,0.06-0.59,0.17-0.88
		c0.11-0.29,0.28-0.56,0.51-0.8c0.23-0.24,0.5-0.43,0.83-0.57c0.33-0.15,0.69-0.22,1.1-0.22c0.45,0,0.88,0.08,1.3,0.25
		c0.42,0.17,0.77,0.41,1.06,0.73c0.25,0.29,0.44,0.64,0.57,1.05c0.14,0.41,0.2,0.83,0.2,1.29c0,0.85-0.15,1.65-0.46,2.37
		c-0.3,0.72-0.74,1.36-1.3,1.93c-0.25,0.25-0.53,0.48-0.85,0.69c-0.32,0.21-0.61,0.39-0.9,0.54c-0.28,0.15-0.52,0.27-0.73,0.35
		c-0.2,0.09-0.33,0.15-0.37,0.17l-1.36-2c0.25-0.09,0.53-0.21,0.83-0.35c0.3-0.15,0.59-0.33,0.86-0.54c0.27-0.21,0.5-0.47,0.68-0.76
		c0.18-0.29,0.28-0.63,0.3-1.01c-0.65,0-1.23-0.19-1.73-0.58C345.82,337.8,345.57,337.24,345.57,336.52z"/>
</g>
</svg>
